# xmcd
#
# Track frame offsets:
#	150
#	13887
#	29635
#	46137
#	61935
#	78002
#	92372
#	105822
#	118022
#	133307
#	149562
#	166895
#	183315
#	198450
#	213040
#	226617
#	242720
#	258622
#	271665
#	288672
#
# Disc length: 4061 seconds
#
# Revision: 4
# Processed by: cddbd v1.5.2PL0 Copyright (c) Steve Scherf et al.
# Submitted via: EZCDAudioConverter 8.0.2.1
#
DISCID=100fdb14
DTITLE=ALAN and ALADIM - RAIZES SERTANEJAS [CD 497263-2) EMI COPACABANA
DYEAR=1998
DGENRE=Country
TTITLE0=LIGUEI PRA DIZER QUE TE AMO (BY GILMAR SINISTRO)
TTITLE1=ME DEIXE ENTRAR NA SUA VIDA (BY GILMAR SINISTRO)
TTITLE2=DONA (BY GILMAR SINISTRO)
TTITLE3=INIMIGO DO PEITO (BY GILMAR SINISTRO)
TTITLE4=DOIS PASSARINHOS (BY GILMAR SINISTRO)
TTITLE5=APRENDIZ DO AMOR (BY GILMAR SINISTRO)
TTITLE6=MEU COMPANHEIRO (SOU EU) (BY GILMAR SINISTRO)
TTITLE7=VOLTEI PRA VOCÊ (BY GILMAR SINISTRO)
TTITLE8=CASTIGO (BY GILMAR SINISTRO)
TTITLE9=A DISTÂNCIA (BY GILMAR SINISTRO)
TTITLE10=PARABÉNS AMOR (BY GILMAR SINISTRO)
TTITLE11=A DOIS GRAUS (I CAN'T STOP LOVING YOU) (BY GILMAR SINISTRO)
TTITLE12=O PRIMEIRO EM SUA VIDA (BY GILMAR SINISTRO)
TTITLE13=PRA PODER VOLTAR AQUI (BY GILMAR SINISTRO)
TTITLE14=QUEM AMA PERDOA (BY GILMAR SINISTRO)
TTITLE15=DÓI COTOVELO (BY GILMAR SINISTRO)
TTITLE16=AMIGA (BY GILMAR SINISTRO)
TTITLE17=CANÇÃO DA ESPERANÇA (BY GILMAR SINISTRO)
TTITLE18=MULHER (BY GILMAR SINISTRO)
TTITLE19=PAIXÃO (BY GILMAR SINISTRO)
EXTD=
EXTT0=
EXTT1=
EXTT2=
EXTT3=
EXTT4=
EXTT5=
EXTT6=
EXTT7=
EXTT8=
EXTT9=
EXTT10=
EXTT11=
EXTT12=
EXTT13=
EXTT14=
EXTT15=
EXTT16=
EXTT17=
EXTT18=
EXTT19=
PLAYORDER=
